# xmcd
#
# Track frame offsets: 
#        150
#        19023
#        34896
#        52119
#        69492
#        84690
#        98763
#        113736
#        131784
#        140007
#        147480
#        167553
#
# Disc length: 2451 seconds
#
# Revision: 0
# Processed by: cddbd v1.5.2PL0 Copyright (c) Steve Scherf et al.
# Submitted via: ExactAudioCopy v0.99pb4
#
DISCID=ae09910c
DTITLE=John Fogerty - Revival
DYEAR=2007
DGENRE=Blues
TTITLE0=1. Don't You Wish It Was True
TTITLE1=2. Gunslinger
TTITLE2=3. Creedence Song
TTITLE3=4. Broken Down Cowboy
TTITLE4=5. River Is Waiting
TTITLE5=6. Long Dark Night
TTITLE6=7. Summer Of Love
TTITLE7=8. Natural Thing
TTITLE8=9. It Ain't Right
TTITLE9=10. I Can't Take It No More
TTITLE10=11. Somebody Help Me
TTITLE11=12. Longshot
EXTD=
EXTT0=
EXTT1=
EXTT2=
EXTT3=
EXTT4=
EXTT5=
EXTT6=
EXTT7=
EXTT8=
EXTT9=
EXTT10=
EXTT11=
PLAYORDER=
